<?xml version="1.0" standalone="no"?>
<!DOCTYPE svg PUBLIC "-//W3C//DTD SVG 20010904//EN"
 "http://www.w3.org/TR/2001/REC-SVG-20010904/DTD/svg10.dtd">
<svg version="1.0" xmlns="http://www.w3.org/2000/svg"
 width="256.000000pt" height="256.000000pt" viewBox="0 0 256.000000 256.000000"
 preserveAspectRatio="xMidYMid meet">

<g transform="translate(0.000000,256.000000) scale(0.100000,-0.100000)"
fill="#000000" stroke="none">
<path d="M1140 2553 c-194 -21 -407 -100 -580 -216 -96 -64 -273 -241 -337
-337 -296 -442 -296 -998 0 -1440 64 -96 241 -273 337 -337 442 -296 998 -296
1440 0 96 64 273 241 337 337 296 442 296 998 0 1440 -64 96 -241 273 -337
337 -252 169 -566 248 -860 216z m-19 -260 c8 -8 6 -27 -8 -70 l-20 -58 -65 3
c-130 7 -216 -44 -273 -161 -33 -70 -38 -75 -73 -80 -57 -10 -126 -59 -158
-112 -21 -36 -28 -64 -32 -119 -4 -67 -2 -74 23 -104 22 -26 34 -32 66 -32 57
0 88 20 143 90 40 51 47 66 42 91 -7 38 19 103 51 129 74 58 196 15 219 -76
19 -74 -38 -156 -116 -169 -30 -5 -50 -16 -64 -34 -49 -62 -113 -124 -151
-144 -57 -30 -174 -30 -231 0 l-41 21 -38 -31 c-99 -81 -99 -233 0 -314 l38
-31 41 21 c57 30 174 30 231 0 38 -20 102 -82 151 -144 14 -18 34 -29 64 -34
78 -13 135 -95 116 -169 -10 -40 -55 -85 -97 -97 -90 -28 -172 36 -173 135 -1
46 -6 59 -45 110 -51 66 -84 86 -140 86 -32 0 -44 -6 -66 -32 -25 -30 -27 -37
-23 -104 8 -121 72 -200 186 -229 25 -7 49 -18 52 -26 4 -8 19 -40 35 -72 46
-95 132 -147 242 -147 86 0 134 34 174 125 20 43 23 72 27 205 3 124 1 163
-11 192 -25 59 -166 228 -190 228 -35 0 -102 38 -120 69 -39 66 -12 157 57
191 53 25 69 25 121 0 53 -26 79 -71 73 -128 -3 -40 1 -48 74 -140 43 -53 91
-122 106 -152 25 -51 27 -66 30 -200 4 -169 -11 -260 -59 -358 -120 -244 -496
-223 -642 35 -18 33 -38 50 -85 73 -77 39 -153 120 -183 198 -17 44 -23 79
-24 154 l-1 97 -40 30 c-77 55 -134 171 -134 271 0 100 56 215 131 270 l43 31
1 97 c1 75 7 110 24 154 30 78 106 159 183 198 47 23 67 40 85 73 49 85 137
157 232 189 62 20 222 21 242 1z m561 -4 c99 -33 182 -100 231 -186 18 -33 38
-50 85 -73 77 -39 153 -120 183 -198 17 -44 23 -79 24 -154 l1 -97 40 -30 c77
-55 134 -171 134 -271 0 -100 -56 -215 -131 -270 l-43 -31 -1 -97 c-1 -75 -7
-110 -24 -154 -30 -78 -106 -159 -183 -198 -47 -23 -67 -40 -85 -73 -51 -90
-145 -163 -247 -192 -65 -19 -208 -17 -227 2 -8 8 -6 28 8 70 l20 58 65 -3
c130 -7 216 44 273 161 33 70 38 75 73 80 57 10 126 59 158 112 21 36 28 64
32 119 4 67 2 74 -23 104 -22 26 -34 32 -66 32 -57 0 -88 -20 -143 -90 -40
-51 -47 -66 -42 -91 7 -38 -19 -103 -51 -129 -74 -58 -196 -15 -219 76 -19 74
38 156 116 169 30 5 50 16 64 34 49 62 113 124 151 144 57 30 174 30 231 0
l41 -21 38 31 c99 81 99 233 0 314 l-38 31 -41 -21 c-57 -30 -174 -30 -231 0
-38 20 -102 82 -151 144 -14 18 -34 29 -64 34 -78 13 -135 95 -116 169 10 40
55 85 97 97 90 28 172 -36 173 -135 1 -46 6 -59 45 -110 51 -66 84 -86 140
-86 32 0 44 6 66 32 25 30 27 37 23 104 -8 121 -72 200 -186 229 -25 7 -49 18
-52 26 -47 104 -68 135 -108 163 -59 42 -96 54 -165 55 -90 1 -137 -32 -178
-124 -20 -43 -23 -72 -27 -205 -3 -124 -1 -163 11 -192 25 -59 166 -228 190
-228 35 0 102 -38 120 -69 39 -66 12 -157 -57 -191 -53 -25 -69 -25 -121 0
-53 26 -79 71 -73 128 3 40 -1 48 -74 140 -43 53 -91 122 -106 152 -25 51 -27
66 -30 200 -4 169 11 260 58 357 72 146 243 209 412 152z"/>
</g>
</svg>
